<?xml version="1.0" encoding="UTF-8"?>
<!DOCTYPE svg PUBLIC "-//W3C//DTD SVG 1.1//EN" "http://www.w3.org/Graphics/SVG/1.1/DTD/svg11.dtd">
<!-- Creator: CorelDRAW 2021.5 -->
<svg xmlns="http://www.w3.org/2000/svg" xml:space="preserve" width="100mm" height="32mm" version="1.1" style="shape-rendering:geometricPrecision; text-rendering:geometricPrecision; image-rendering:optimizeQuality; fill-rule:evenodd; clip-rule:evenodd"
viewBox="0 0 100 32"
 xmlns:xlink="http://www.w3.org/1999/xlink"
 xmlns:xodm="http://www.corel.com/coreldraw/odm/2003">
 <defs>
  <style type="text/css">
   <![CDATA[
    .fil0 {fill:#2B2A29}
    .fil1 {fill:#2B2A29;fill-rule:nonzero}
   ]]>
  </style>
 </defs>
 <g id="Слой_x0020_1">
  <metadata id="CorelCorpID_0Corel-Layer"/>
  <g id="_1691962229104">
   <path class="fil0" d="M16.6966 19.4769l-3.851 6.1542 8.2698 -4.4067 -4.4188 -1.7475zm13.4754 5.3291l-6.5539 -7.2645 11.2075 -7.5748 -21.4657 6.1834 16.8121 8.6559zm-5.4979 -12.8939l-1.1584 -5.5432 -4.3195 7.595 5.4779 -2.0518z"/>
   <g>
    <path class="fil1" d="M54.5345 16.4795c-0.1035,0.2848 -0.281,0.5634 -0.5436,0.8342 -0.2551,0.2702 -0.567,0.502 -0.9294,0.6902 -0.5029,0.2484 -1.0354,0.436 -1.5938,0.5634 -0.5485,0.1286 -1.2043,0.1927 -1.9624,0.1927 -0.6028,0 -1.2068,0 -1.8083,0 -0.6003,0 -1.2006,0 -1.801,0 -0.1355,0.3502 -0.2705,0.7002 -0.3993,1.0499 -0.1288,0.3499 -0.265,0.6998 -0.3944,1.0486 -0.9085,0 -1.8219,0 -2.7267,0 0.1319,-0.3802 0.2558,-0.7302 0.3661,-1.0499 0.1102,-0.3192 0.2113,-0.6091 0.302,-0.8662 0.1817,-0.5155 0.323,-0.9103 0.4191,-1.1805 0.1787,-0.5025 0.466,-0.9584 0.8567,-1.3675 0.3883,-0.4078 0.8727,-0.7593 1.457,-1.0538 0.5399,-0.2856 1.1772,-0.5025 1.9008,-0.6562 0.7186,-0.1518 1.4828,-0.228 2.2692,-0.228 0.3834,0.0065 0.7668,0.0109 1.1514,0.016 0.6545,0 1.2018,0.0315 1.6283,0.1 0.4265,0.0659 0.7889,0.1703 1.0934,0.3117 0.3562,0.1709 0.6065,0.388 0.7248,0.6492 0.1245,0.2612 0.1244,0.5769 -0.0099,0.9462zm-8.1022 1.0801c0.869,0 1.7393,0 2.6095,0 0.4487,0 0.8308,-0.0166 1.1353,-0.0487 0.3044,-0.0339 0.5745,-0.1022 0.8222,-0.2074 0.1997,-0.0848 0.3488,-0.1901 0.477,-0.3195 0.127,-0.1268 0.2216,-0.2845 0.2885,-0.475 0.0588,-0.168 0.0345,-0.3201 -0.0727,-0.4539 -0.1147,-0.1319 -0.2639,-0.2222 -0.4599,-0.2682 -0.2564,-0.066 -0.5116,-0.1046 -0.779,-0.1146 -0.2601,-0.0098 -0.5683,-0.0052 -0.9306,0.0146 -0.1122,0 -0.3514,0.0366 -0.7163,0.1076 -0.3562,0.0704 -0.7173,0.1901 -1.065,0.3604 -0.3352,0.1607 -0.605,0.3608 -0.8061,0.6102 -0.1957,0.2428 -0.3685,0.5122 -0.5029,0.7945z"/>
    <path class="fil1" d="M53.4509 20.8585c0.1957,-0.5319 0.3896,-1.0641 0.5821,-1.5959 0.1926,-0.5321 0.3888,-1.0637 0.5834,-1.596 0.1943,-0.5316 0.3895,-1.0651 0.5835,-1.5973 0.1937,-0.5317 0.3901,-1.0646 0.5872,-1.5973 0.8744,0 1.7565,0 2.6373,0 -0.1581,0.4299 -0.3158,0.8605 -0.4718,1.2889 -0.1563,0.4293 -0.3099,0.8583 -0.4618,1.2875 0.9034,0.0051 1.6274,-0.0007 2.1643,-0.0166 0.5383,-0.0159 0.8909,-0.0441 1.0603,-0.0837 0.34,-0.0753 0.6612,-0.1998 0.9585,-0.3717 0.2974,-0.1705 0.5659,-0.3908 0.8093,-0.6597 0.2434,-0.2663 0.4316,-0.5914 0.5696,-0.9727 0.0477,-0.1571 0.0904,-0.3142 0.138,-0.472 0.9298,0 1.8707,0 2.8067,0 -0.0489,0.1578 -0.0916,0.3149 -0.1343,0.472 -0.1869,0.5116 -0.5256,0.9899 -1.0024,1.4357 -0.4768,0.4458 -1.1041,0.8603 -1.8783,1.2428 0.6487,0.2382 1.079,0.589 1.2873,1.0493 0.104,0.2299 0.1562,0.4892 0.1543,0.7747 -0.0018,0.2854 -0.0564,0.5997 -0.1668,0.9408 -0.074,0.1571 -0.138,0.3142 -0.2058,0.4712 -0.9409,0 -1.8757,0 -2.8105,0 0.0679,-0.157 0.1431,-0.3141 0.2171,-0.4712 0.1406,-0.3838 0.1832,-0.707 0.1418,-0.9759 -0.0464,-0.2657 -0.1556,-0.486 -0.3312,-0.6566 -0.1694,-0.1737 -0.4015,-0.2962 -0.6788,-0.3742 -0.1443,-0.0377 -0.5145,-0.0652 -1.1079,-0.0818 -0.5921,-0.0165 -1.4115,-0.0229 -2.4541,-0.0185 -0.1581,0.4305 -0.3149,0.8604 -0.473,1.2901 -0.158,0.4292 -0.3149,0.859 -0.473,1.2881 -0.8808,0 -1.7566,0 -2.631,0z"/>
    <path class="fil1" d="M78.0163 20.8631c-1.5857,-0.3381 -2.8498,-1.2824 -2.2484,-3.0904 0.5933,-1.7847 2.5148,-2.7228 4.2418,-3.0766 2.0342,-0.417 5.214,-0.3274 7.1448,0.2988 -0.1739,0.5135 -0.3419,1.0269 -0.5099,1.5396 -1.888,-0.7176 -3.3174,-1.1354 -5.4239,-0.7346 -1.1258,0.2139 -2.191,0.8326 -2.5728,1.9728 -0.3725,1.1126 0.2557,1.7717 1.3212,1.9795 2.1576,0.4204 3.8638,-0.1056 5.8526,-0.742 -0.168,0.5088 -0.3361,1.0169 -0.5041,1.525 -2.09,0.4923 -5.1681,0.7829 -7.3013,0.3279z"/>
    <path class="fil1" d="M41.8625 20.8611c-0.9561,0 -1.918,0 -2.8684,0 0.116,-0.3802 0.2492,-0.7605 0.3767,-1.1407 -1.7674,0 -3.5289,0 -5.2906,0 -0.1274,0.3802 -0.2607,0.7605 -0.3766,1.1407 -0.9561,0 -1.918,0 -2.8625,0 0.7803,-2.2208 1.1306,-4.3764 3.3087,-5.5111 1.1752,-0.6123 2.6366,-0.8983 4.3576,-0.8983 1.4158,0 4.0395,0.258 4.5024,1.9516 0.2613,0.9559 -0.7743,3.3538 -1.1473,4.4578zm-2.1034 -2.3371c0.2102,-0.5694 0.5195,-1.0898 0.3882,-1.7218 -0.1966,-0.9469 -1.2232,-1.1382 -2.0456,-1.1382 -2.1395,0 -2.9394,0.9815 -3.6332,2.86 1.7616,0 3.5232,0 5.2906,0z"/>
    <path class="fil0" d="M64.9284 20.6997c2.7741,0.3021 6.2982,0.6181 8.5496,-0.5351 1.143,-0.5855 1.3401,-1.2501 1.843,-2.5579 0.3868,-1.0056 0.849,-2.1119 1.1554,-3.1319l-3.0925 -0.0028c-0.1593,0.6054 -0.9053,2.5764 -1.2832,3.0041 -0.338,0.3824 -0.8747,0.6343 -1.6714,0.6966 -3.1899,0.2493 -1.3062,-1.907 -0.9619,-3.7007l-2.9622 0c-0.3586,1.3135 -1.764,3.2026 -0.2248,4.1081 1.6166,0.951 4.57,0.6009 5.4683,0.4487 -0.9062,1.2599 -3.8721,0.8606 -6.4929,0.5041l-0.3274 1.1668z"/>
   </g>
  </g>
 </g>
</svg>
